  0
SECTION
  2
HEADER
  9
$ANGBASE
  50
0.0
  9
$ANGDIR
  70
1
  9
$MEASUREMENT
  70
1
  0
ENDSEC
  0
SECTION
  2
TABLES
  0
TABLE
  2
LTYPE
  70
4
  0
LTYPE
  5
40F
  2
CONTINUOUS
  70
0
  3
Solid line
  72
65
  73
0
  40
0.0
  0
LTYPE
  5
410
  2
DASHDOT
 70
0
  3
Dash Dot ____ _ ____ _
 72
65
 73
4
 40
2.0
 49
1.25
 49
-0.25
 49
0.25
 49
-0.25
  0
LTYPE
  5
411
  2
DASHED
 70
0
  3
Dashed __ __ __ __ __
 72
65
 73
2
 40
0.75
 49
0.5
 49
-0.25
  0
LTYPE
  5
43B
  2
DOTTED
 70
0
  3
Dotted .  .  .  .
 72
65
 73
2
 40
0.2
 49
0.0
 49
-0.2
  0
ENDTAB
  0
TABLE
  2
STYLE
  70
4
  0
STYLE
  2
KICAD
  70
0
  40
0
  41
1
  42
1
  50
0
  71
0
  3
isocp.shx
  0
STYLE
  2
KICADB
  70
0
  40
0
  41
1
  42
1
  50
0
  71
0
  3
isocp.shx
  0
STYLE
  2
KICADI
  70
0
  40
0
  41
1
  42
1
  50
15
  71
0
  3
isocp.shx
  0
STYLE
  2
KICADBI
  70
0
  40
0
  41
1
  42
1
  50
15
  71
0
  3
isocp.shx
  0
ENDTAB
  0
TABLE
  2
LAYER
  70
1
  0
LAYER
  2
BLACK
  70
0
  62
7
  6
CONTINUOUS
  0
ENDTAB
  0
ENDSEC
  0
SECTION
  2
ENTITIES
0
ARC
8
BLACK
10
144.7810000000000059
20
-110.3218999999999994
40
2.0000223888619346
50
-103.99938423
51
-14.00096819
0
ARC
8
BLACK
10
148.8463999999999885
20
-94.0167000000000002
40
1.9999730002250031
50
-13.99936215
51
0.00085945
0
ARC
8
BLACK
10
128.2583999999999946
20
-106.2055999999999898
40
1.9968832777959256
50
-105.28266691
51
-103.99968099
0
ARC
8
BLACK
10
123.3931999999999931
20
-109.0197999999999894
40
2.0000511051483159
50
74.71782403
51
82.99858329
0
ARC
8
BLACK
10
105.7780999999999949
20
-102.8268999999999949
40
1.9999477255793463
50
-133.87073868
51
-96.99892292
0
ARC
8
BLACK
10
100.394599999999997
20
-103.1999999999999886
40
2.00000000021025
50
46.12988468
51
90.00083079
0
ARC
8
BLACK
10
84.1499999999999915
20
-99.1999999999999886
40
2.
50
-180.00000000
51
-90.00000000
0
ARC
8
BLACK
10
148.8463999999999885
20
-22.2375000000000007
40
2.0000000001822498
50
0.00000000
51
90.00077349
0
ARC
8
BLACK
10
171.9189999999999827
20
-110.3218999999999994
40
2.0000333377726482
50
-165.99903181
51
-76.00061577
0
ARC
8
BLACK
10
193.3067999999999813
20
-109.0197999999999894
40
2.0000568364814035
50
97.00141671
51
105.28214834
0
ARC
8
BLACK
10
188.441599999999994
20
-106.2055999999999898
40
1.9968833857050841
50
-76.00031901
51
-74.71733309
0
ARC
8
BLACK
10
167.8536000000000001
20
-94.0167000000000002
40
1.9999661558866439
50
-180.00085945
51
-166.00063785
0
ARC
8
BLACK
10
210.9218999999999937
20
-102.8268999999999949
40
1.9999357960257125
50
-83.00107708
51
-46.12926132
0
ARC
8
BLACK
10
167.8536000000000001
20
-22.2375000000000007
40
1.999973
50
89.99922651
51
180.00000000
0
ARC
8
BLACK
10
216.3053999999999917
20
-103.1999999999999886
40
1.9999800741919904
50
89.99916921
51
133.87011532
0
ARC
8
BLACK
10
232.5499999999999829
20
-99.1999999999999886
40
2.
50
-90.00000000
51
-0.00000000
0
LINE
8
BLACK
6
CONTINUOUS
10
216.3054290000000037
20
-101.1999999999999886
11
232.5499999999999829
21
-101.1999999999999886
0
LINE
8
BLACK
6
CONTINUOUS
10
234.5499999999999829
20
-74.625
11
234.5499999999999829
21
-99.1999999999999886
0
LINE
8
BLACK
6
CONTINUOUS
10
212.3079229999999882
20
-104.2686640000000011
11
214.9193619999999783
21
-101.7581890000000016
0
LINE
8
BLACK
6
CONTINUOUS
10
223.0249999999999773
20
-20.2375000000000007
11
167.8536269999999888
21
-20.2375000000000007
0
LINE
8
BLACK
6
CONTINUOUS
10
165.8536269999999888
20
-22.2375000000000007
11
165.8536269999999888
21
-94.0166699999999906
0
LINE
8
BLACK
6
CONTINUOUS
10
193.0630060000000014
20
-107.0346629999999948
11
211.1655949999999962
21
-104.8119449999999944
0
LINE
8
BLACK
6
CONTINUOUS
10
165.9130360000000053
20
-94.5005139999999955
11
169.9783950000000061
21
-110.8057819999999936
0
LINE
8
BLACK
6
CONTINUOUS
10
192.7796400000000006
20
-107.0904659999999922
11
188.9679409999999962
21
-108.1318679999999972
0
LINE
8
BLACK
6
CONTINUOUS
10
172.4028309999999919
20
-112.2625290000000007
11
188.9246789999999976
21
-108.1431699999999978
0
LINE
8
BLACK
6
CONTINUOUS
10
101.7806379999999962
20
-101.7581890000000016
11
104.3920770000000005
21
-104.2686640000000011
0
LINE
8
BLACK
6
CONTINUOUS
10
110.7249999999999943
20
-20.2375000000000007
11
148.8463729999999998
21
-20.2375000000000007
0
LINE
8
BLACK
6
CONTINUOUS
10
150.8463729999999998
20
-22.2375000000000007
11
150.8463729999999998
21
-94.0166699999999906
0
LINE
8
BLACK
6
CONTINUOUS
10
84.1499999999999915
20
-101.1999999999999886
11
100.3945709999999991
21
-101.1999999999999886
0
LINE
8
BLACK
6
CONTINUOUS
10
123.9203609999999998
20
-107.0904659999999922
11
127.7320589999999925
21
-108.1318679999999972
0
LINE
8
BLACK
6
CONTINUOUS
10
105.5344049999999925
20
-104.8119449999999944
11
123.6369940000000014
21
-107.0346629999999948
0
LINE
8
BLACK
6
CONTINUOUS
10
127.775320999999991
20
-108.1431699999999978
11
144.2971689999999967
21
-112.2625290000000007
0
LINE
8
BLACK
6
CONTINUOUS
10
150.7869639999999833
20
-94.5005139999999955
11
146.7216049999999825
21
-110.8057819999999936
0
ARC
8
BLACK
10
246.0749999999999886
20
-18.2375000000000007
40
2.
50
-180.00000000
51
-90.00000000
0
ARC
8
BLACK
10
242.0749999999999886
20
-74.625
40
2.
50
0.00000000
51
90.00000000
0
LINE
8
BLACK
6
CONTINUOUS
10
53.5749999999999957
20
-79.3875000000000028
11
53.5749999999999957
21
-89.6749999999999972
0
LINE
8
BLACK
6
CONTINUOUS
10
246.0749999999999886
20
-77.3875000000000028
11
261.125
21
-77.3875000000000028
0
LINE
8
BLACK
6
CONTINUOUS
10
93.6749999999999972
20
-20.2375000000000007
11
110.7249999999999943
21
-20.2375000000000007
0
LINE
8
BLACK
6
CONTINUOUS
10
72.625
20
-74.625
11
72.625
21
-75.3875000000000028
0
ARC
8
BLACK
10
223.0249999999999773
20
-18.2375000000000007
40
2.
50
-90.00000000
51
-0.00000000
0
ARC
8
BLACK
10
242.0749999999999886
20
-17.4749999999999979
40
2.
50
0.00000000
51
90.00000000
0
ARC
8
BLACK
10
261.125
20
-79.3875000000000028
40
2.
50
0.00000000
51
90.00000000
0
LINE
8
BLACK
6
CONTINUOUS
10
263.125
20
-79.3875000000000028
11
263.125
21
-89.6749999999999972
0
ARC
8
BLACK
10
261.125
20
-22.2375000000000007
40
2.
50
0.00000000
51
90.00000000
0
LINE
8
BLACK
6
CONTINUOUS
10
301.2249999999999659
20
-36.5249999999999986
11
301.2249999999999659
21
-89.6749999999999972
0
ARC
8
BLACK
10
93.6749999999999972
20
-18.2375000000000007
40
2.
50
-180.00000000
51
-90.00000000
0
LINE
8
BLACK
6
CONTINUOUS
10
263.125
20
-32.5249999999999986
11
263.125
21
-22.2375000000000007
0
LINE
8
BLACK
6
CONTINUOUS
10
225.0249999999999773
20
-17.4749999999999979
11
225.0249999999999773
21
-18.2375000000000007
0
ARC
8
BLACK
10
236.5499999999999829
20
-74.625
40
2.
50
90.00000000
51
180.00000000
0
ARC
8
BLACK
10
80.1499999999999915
20
-74.625
40
2.
50
0.00000000
51
90.00000000
0
LINE
8
BLACK
6
CONTINUOUS
10
74.625
20
-15.4749999999999996
11
89.6749999999999972
21
-15.4749999999999996
0
ARC
8
BLACK
10
51.5749999999999957
20
-32.5249999999999986
40
2.
50
-90.00000000
51
-0.00000000
0
LINE
8
BLACK
6
CONTINUOUS
10
299.2249999999999659
20
-34.5249999999999986
11
265.125
21
-34.5249999999999986
0
ARC
8
BLACK
10
70.625
20
-75.3875000000000028
40
2.
50
-90.00000000
51
-0.00000000
0
ARC
8
BLACK
10
89.6749999999999972
20
-17.4749999999999979
40
2.
50
0.00000000
51
90.00000000
0
LINE
8
BLACK
6
CONTINUOUS
10
15.4749999999999996
20
-36.5249999999999986
11
15.4749999999999996
21
-89.6749999999999972
0
ARC
8
BLACK
10
51.5749999999999957
20
-89.6749999999999972
40
2.
50
-90.00000000
51
-0.00000000
0
LINE
8
BLACK
6
CONTINUOUS
10
265.125
20
-91.6749999999999972
11
299.2249999999999659
21
-91.6749999999999972
0
LINE
8
BLACK
6
CONTINUOUS
10
51.5749999999999957
20
-91.6749999999999972
11
17.4749999999999979
21
-91.6749999999999972
0
LINE
8
BLACK
6
CONTINUOUS
10
242.0749999999999886
20
-72.625
11
236.5499999999999829
21
-72.625
0
ARC
8
BLACK
10
74.625
20
-17.4749999999999979
40
2.
50
90.00000000
51
180.00000000
0
LINE
8
BLACK
6
CONTINUOUS
10
53.5749999999999957
20
-22.2375000000000007
11
53.5749999999999957
21
-32.5249999999999986
0
ARC
8
BLACK
10
299.2249999999999659
20
-89.6749999999999972
40
2.
50
-90.00000000
51
-0.00000000
0
ARC
8
BLACK
10
227.0249999999999773
20
-17.4749999999999979
40
2.
50
90.00000000
51
180.00000000
0
LINE
8
BLACK
6
CONTINUOUS
10
82.1499999999999915
20
-74.625
11
82.1499999999999915
21
-99.1999999999999886
0
LINE
8
BLACK
6
CONTINUOUS
10
55.5749999999999957
20
-77.3875000000000028
11
70.625
21
-77.3875000000000028
0
ARC
8
BLACK
10
17.4749999999999979
20
-89.6749999999999972
40
2.
50
-180.00000000
51
-90.00000000
0
LINE
8
BLACK
6
CONTINUOUS
10
51.5749999999999957
20
-34.5249999999999986
11
17.4749999999999979
21
-34.5249999999999986
0
ARC
8
BLACK
10
265.125
20
-32.5249999999999986
40
2.
50
-180.00000000
51
-90.00000000
0
ARC
8
BLACK
10
265.125
20
-89.6749999999999972
40
2.
50
-180.00000000
51
-90.00000000
0
ARC
8
BLACK
10
74.625
20
-74.625
40
2.
50
90.00000000
51
180.00000000
0
ARC
8
BLACK
10
299.2249999999999659
20
-36.5249999999999986
40
2.
50
0.00000000
51
90.00000000
0
LINE
8
BLACK
6
CONTINUOUS
10
246.0749999999999886
20
-20.2375000000000007
11
261.125
21
-20.2375000000000007
0
LINE
8
BLACK
6
CONTINUOUS
10
72.625
20
-17.4749999999999979
11
72.625
21
-18.2375000000000007
0
LINE
8
BLACK
6
CONTINUOUS
10
91.6749999999999972
20
-17.4749999999999979
11
91.6749999999999972
21
-18.2375000000000007
0
ARC
8
BLACK
10
55.5749999999999957
20
-22.2375000000000007
40
2.
50
90.00000000
51
180.00000000
0
LINE
8
BLACK
6
CONTINUOUS
10
227.0249999999999773
20
-15.4749999999999996
11
242.0749999999999886
21
-15.4749999999999996
0
ARC
8
BLACK
10
17.4749999999999979
20
-36.5249999999999986
40
2.
50
90.00000000
51
180.00000000
0
ARC
8
BLACK
10
246.0749999999999886
20
-75.3875000000000028
40
2.
50
-180.00000000
51
-90.00000000
0
LINE
8
BLACK
6
CONTINUOUS
10
244.0749999999999886
20
-18.2375000000000007
11
244.0749999999999886
21
-17.4749999999999979
0
LINE
8
BLACK
6
CONTINUOUS
10
74.625
20
-72.625
11
80.1499999999999915
21
-72.625
0
LINE
8
BLACK
6
CONTINUOUS
10
55.5749999999999957
20
-20.2375000000000007
11
70.625
21
-20.2375000000000007
0
LINE
8
BLACK
6
CONTINUOUS
10
244.0749999999999886
20
-74.625
11
244.0749999999999886
21
-75.3875000000000028
0
ARC
8
BLACK
10
70.625
20
-18.2375000000000007
40
2.
50
-90.00000000
51
-0.00000000
0
ARC
8
BLACK
10
55.5749999999999957
20
-79.3875000000000028
40
2.
50
90.00000000
51
180.00000000
  0
ENDSEC
  0
EOF
