  0
SECTION
  2
HEADER
  9
$ANGBASE
  50
0.0
  9
$ANGDIR
  70
1
  9
$MEASUREMENT
  70
1
  0
ENDSEC
  0
SECTION
  2
TABLES
  0
TABLE
  2
LTYPE
  70
4
  0
LTYPE
  5
40F
  2
CONTINUOUS
  70
0
  3
Solid line
  72
65
  73
0
  40
0.0
  0
LTYPE
  5
410
  2
DASHDOT
 70
0
  3
Dash Dot ____ _ ____ _
 72
65
 73
4
 40
2.0
 49
1.25
 49
-0.25
 49
0.25
 49
-0.25
  0
LTYPE
  5
411
  2
DASHED
 70
0
  3
Dashed __ __ __ __ __
 72
65
 73
2
 40
0.75
 49
0.5
 49
-0.25
  0
LTYPE
  5
43B
  2
DOTTED
 70
0
  3
Dotted .  .  .  .
 72
65
 73
2
 40
0.2
 49
0.0
 49
-0.2
  0
ENDTAB
  0
TABLE
  2
STYLE
  70
4
  0
STYLE
  2
KICAD
  70
0
  40
0
  41
1
  42
1
  50
0
  71
0
  3
isocp.shx
  0
STYLE
  2
KICADB
  70
0
  40
0
  41
1
  42
1
  50
0
  71
0
  3
isocp.shx
  0
STYLE
  2
KICADI
  70
0
  40
0
  41
1
  42
1
  50
15
  71
0
  3
isocp.shx
  0
STYLE
  2
KICADBI
  70
0
  40
0
  41
1
  42
1
  50
15
  71
0
  3
isocp.shx
  0
ENDTAB
  0
TABLE
  2
LAYER
  70
1
  0
LAYER
  2
BLACK
  70
0
  62
7
  6
CONTINUOUS
  0
ENDTAB
  0
ENDSEC
  0
SECTION
  2
ENTITIES
0
LINE
8
BLACK
6
CONTINUOUS
10
191.6875
20
-105.9624999999999915
11
191.6875
21
-110.7249999999999943
0
LINE
8
BLACK
6
CONTINUOUS
10
215.5
20
-101.1999999999999886
11
215.5
21
-105.9624999999999915
0
LINE
8
BLACK
6
CONTINUOUS
10
225.0249999999999773
20
-20.2375000000000007
11
167.875
21
-20.2375000000000007
0
LINE
8
BLACK
6
CONTINUOUS
10
301.2249999999999659
20
-34.5249999999999986
11
263.125
21
-34.5249999999999986
0
LINE
8
BLACK
6
CONTINUOUS
10
301.2249999999999659
20
-34.5249999999999986
11
301.2249999999999659
21
-91.6749999999999972
0
LINE
8
BLACK
6
CONTINUOUS
10
263.125
20
-91.6749999999999972
11
301.2249999999999659
21
-91.6749999999999972
0
LINE
8
BLACK
6
CONTINUOUS
10
244.0749999999999886
20
-72.625
11
234.5499999999999829
21
-72.625
0
LINE
8
BLACK
6
CONTINUOUS
10
244.0749999999999886
20
-77.3875000000000028
11
263.125
21
-77.3875000000000028
0
LINE
8
BLACK
6
CONTINUOUS
10
167.875
20
-20.2375000000000007
11
167.875
21
-110.7249999999999943
0
LINE
8
BLACK
6
CONTINUOUS
10
167.875
20
-110.7249999999999943
11
191.6875
21
-110.7249999999999943
0
LINE
8
BLACK
6
CONTINUOUS
10
191.6875
20
-105.9624999999999915
11
215.5
21
-105.9624999999999915
0
LINE
8
BLACK
6
CONTINUOUS
10
244.0749999999999886
20
-20.2375000000000007
11
244.0749999999999886
21
-15.4749999999999996
0
LINE
8
BLACK
6
CONTINUOUS
10
263.125
20
-34.5249999999999986
11
263.125
21
-20.2375000000000007
0
LINE
8
BLACK
6
CONTINUOUS
10
129.7750000000000057
20
-105.9624999999999915
11
129.7750000000000057
21
-110.7249999999999943
0
LINE
8
BLACK
6
CONTINUOUS
10
105.9624999999999915
20
-101.1999999999999886
11
105.9624999999999915
21
-105.9624999999999915
0
LINE
8
BLACK
6
CONTINUOUS
10
82.1499999999999915
20
-72.625
11
82.1499999999999915
21
-101.1999999999999886
0
LINE
8
BLACK
6
CONTINUOUS
10
72.625
20
-72.625
11
72.625
21
-77.3875000000000028
0
LINE
8
BLACK
6
CONTINUOUS
10
53.5749999999999957
20
-91.6749999999999972
11
15.4749999999999996
21
-91.6749999999999972
0
LINE
8
BLACK
6
CONTINUOUS
10
53.5749999999999957
20
-77.3875000000000028
11
53.5749999999999957
21
-91.6749999999999972
0
LINE
8
BLACK
6
CONTINUOUS
10
15.4749999999999996
20
-34.5249999999999986
11
15.4749999999999996
21
-91.6749999999999972
0
LINE
8
BLACK
6
CONTINUOUS
10
53.5749999999999957
20
-34.5249999999999986
11
15.4749999999999996
21
-34.5249999999999986
0
LINE
8
BLACK
6
CONTINUOUS
10
53.5749999999999957
20
-20.2375000000000007
11
53.5749999999999957
21
-34.5249999999999986
0
LINE
8
BLACK
6
CONTINUOUS
10
72.625
20
-15.4749999999999996
11
72.625
21
-20.2375000000000007
0
LINE
8
BLACK
6
CONTINUOUS
10
91.6749999999999972
20
-15.4749999999999996
11
91.6749999999999972
21
-20.2375000000000007
0
LINE
8
BLACK
6
CONTINUOUS
10
148.8249999999999886
20
-20.2375000000000007
11
148.8249999999999886
21
-110.7249999999999943
0
LINE
8
BLACK
6
CONTINUOUS
10
215.5
20
-101.1999999999999886
11
234.5499999999999829
21
-101.1999999999999886
0
LINE
8
BLACK
6
CONTINUOUS
10
129.7750000000000057
20
-110.7249999999999943
11
148.8249999999999886
21
-110.7249999999999943
0
LINE
8
BLACK
6
CONTINUOUS
10
105.9624999999999915
20
-105.9624999999999915
11
129.7750000000000057
21
-105.9624999999999915
0
LINE
8
BLACK
6
CONTINUOUS
10
82.1499999999999915
20
-101.1999999999999886
11
105.9624999999999915
21
-101.1999999999999886
0
LINE
8
BLACK
6
CONTINUOUS
10
72.625
20
-72.625
11
82.1499999999999915
21
-72.625
0
LINE
8
BLACK
6
CONTINUOUS
10
53.5749999999999957
20
-77.3875000000000028
11
72.625
21
-77.3875000000000028
0
LINE
8
BLACK
6
CONTINUOUS
10
244.0749999999999886
20
-20.2375000000000007
11
263.125
21
-20.2375000000000007
0
LINE
8
BLACK
6
CONTINUOUS
10
225.0249999999999773
20
-15.4749999999999996
11
244.0749999999999886
21
-15.4749999999999996
0
LINE
8
BLACK
6
CONTINUOUS
10
110.7249999999999943
20
-20.2375000000000007
11
148.8249999999999886
21
-20.2375000000000007
0
LINE
8
BLACK
6
CONTINUOUS
10
91.6749999999999972
20
-20.2375000000000007
11
110.7249999999999943
21
-20.2375000000000007
0
LINE
8
BLACK
6
CONTINUOUS
10
72.625
20
-15.4749999999999996
11
91.6749999999999972
21
-15.4749999999999996
0
LINE
8
BLACK
6
CONTINUOUS
10
53.5749999999999957
20
-20.2375000000000007
11
72.625
21
-20.2375000000000007
0
LINE
8
BLACK
6
CONTINUOUS
10
234.5499999999999829
20
-72.625
11
234.5499999999999829
21
-101.1999999999999886
0
LINE
8
BLACK
6
CONTINUOUS
10
225.0249999999999773
20
-15.4749999999999996
11
225.0249999999999773
21
-20.2375000000000007
0
LINE
8
BLACK
6
CONTINUOUS
10
263.125
20
-77.3875000000000028
11
263.125
21
-91.6749999999999972
0
LINE
8
BLACK
6
CONTINUOUS
10
244.0749999999999886
20
-72.625
11
244.0749999999999886
21
-77.3875000000000028
  0
ENDSEC
  0
EOF
